<svg width="60" height="60" viewBox="0 0 60 60" fill="none" xmlns="http://www.w3.org/2000/svg">
<path d="M45 55H15C12.2386 55 10 52.7614 10 50V10C10 7.23858 12.2386 5 15 5H32.5C32.5272 5.00118 32.5542 5.00623 32.58 5.015C32.6044 5.02254 32.6296 5.02757 32.655 5.03C32.8755 5.04413 33.0931 5.087 33.3025 5.1575L33.3725 5.18C33.4292 5.1992 33.4843 5.2226 33.5375 5.25C33.8099 5.37106 34.058 5.54046 34.27 5.75L49.27 20.75C49.4795 20.962 49.6489 21.2101 49.77 21.4825C49.795 21.5375 49.8125 21.595 49.8325 21.6525L49.855 21.7175C49.9248 21.926 49.966 22.143 49.9775 22.3625C49.9814 22.3855 49.9872 22.408 49.995 22.43C49.9994 22.4531 50.0011 22.4766 50.0003 22.5V50C50.0003 52.7614 47.7614 55 45 55ZM15 10V50H45V25H32.5C31.1193 25 30 23.8807 30 22.5V10H15ZM35 13.535V20H41.465L35 13.535Z" fill="white"/>
</svg>
