<svg width="60" height="60" viewBox="0 0 60 60" fill="none" xmlns="http://www.w3.org/2000/svg">
<path d="M45 35C42.2386 35 40 32.7614 40 30C40 27.2386 42.2386 25 45 25C47.7614 25 50 27.2386 50 30C50 31.3261 49.4732 32.5979 48.5355 33.5355C47.5979 34.4732 46.3261 35 45 35ZM30 35C27.2386 35 25 32.7614 25 30C25 27.2386 27.2386 25 30 25C32.7614 25 35 27.2386 35 30C35 31.3261 34.4732 32.5979 33.5355 33.5355C32.5979 34.4732 31.3261 35 30 35ZM15 35C12.2386 35 10 32.7614 10 30C10 27.2386 12.2386 25 15 25C17.7614 25 20 27.2386 20 30C20 31.3261 19.4732 32.5979 18.5355 33.5355C17.5979 34.4732 16.3261 35 15 35Z" fill="white"/>
</svg>
